<svg width="128" height="128" viewBox="0 0 128 128" fill="none" xmlns="http://www.w3.org/2000/svg">
    <path
        d="M26.4208 105.419C26.4208 105.419 26.6554 107.136 30.0048 106.891C33.3541 106.645 35.7968 108.203 36.5754 111.157C36.5754 111.147 28.2874 117.013 26.4208 105.419Z"
        fill="#3eb575" />
    <path
        d="M46.9339 91.8719C62.8515 91.8719 75.7552 78.9681 75.7552 63.0505C75.7552 47.1329 62.8515 34.2292 46.9339 34.2292C31.0163 34.2292 18.1125 47.1329 18.1125 63.0505C18.1125 78.9681 31.0163 91.8719 46.9339 91.8719Z"
        fill="#D6DAE1" />
    <path
        d="M33.0244 65.8676C35.1216 65.8676 36.8217 64.1675 36.8217 62.0703C36.8217 59.9731 35.1216 58.2729 33.0244 58.2729C30.9272 58.2729 29.2271 59.9731 29.2271 62.0703C29.2271 64.1675 30.9272 65.8676 33.0244 65.8676Z"
        fill="#EFF2F4" />
    <path
        d="M55.7442 57.5468C57.8414 57.5468 59.5416 55.8466 59.5416 53.7494C59.5416 51.6522 57.8414 49.9521 55.7442 49.9521C53.647 49.9521 51.9469 51.6522 51.9469 53.7494C51.9469 55.8466 53.647 57.5468 55.7442 57.5468Z"
        fill="#EFF2F4" />
    <path
        d="M37.1625 75.1252L61.2265 66.3146C61.2265 66.3146 62.1438 76.5866 52.9598 79.9999C43.7758 83.4132 37.1625 75.1252 37.1625 75.1252Z"
        fill="#EFF2F4" />
    <path
        d="M79.7016 73.9301C95.6192 73.9301 108.523 61.0264 108.523 45.1088C108.523 29.1912 95.6192 16.2875 79.7016 16.2875C63.784 16.2875 50.8802 29.1912 50.8802 45.1088C50.8802 61.0264 63.784 73.9301 79.7016 73.9301Z"
        fill="#EFF2F4" />
    <path
        d="M68.6609 40.3947C70.7581 40.3947 72.4582 38.6945 72.4582 36.5973C72.4582 34.5001 70.7581 32.8 68.6609 32.8C66.5636 32.8 64.8635 34.5001 64.8635 36.5973C64.8635 38.6945 66.5636 40.3947 68.6609 40.3947Z"
        fill="white" />
    <path
        d="M92.1921 46.0363C94.2893 46.0363 95.9894 44.3362 95.9894 42.239C95.9894 40.1418 94.2893 38.4417 92.1921 38.4417C90.0949 38.4417 88.3948 40.1418 88.3948 42.239C88.3948 44.3362 90.0949 46.0363 92.1921 46.0363Z"
        fill="white" />
    <path
        d="M64.8854 49.7604L89.8027 55.7444C89.8027 55.7444 84.8854 64.8111 75.36 62.5178C65.8347 60.2244 64.8854 49.7604 64.8854 49.7604Z"
        fill="white" />
    <path
        d="M109.44 65.7707C109.099 61.9307 106.027 55.4667 98.4962 55.4667C92.0962 55.4667 87.9256 60.8853 86.8589 62.4533C85.7922 60.8853 81.6642 55.4667 75.2322 55.4667C67.7016 55.4667 64.5656 61.9413 64.2776 65.792C63.9896 69.6427 65.0989 72.6933 72.8109 80.5333C80.5229 88.3733 86.8589 95.104 86.8589 95.104C86.8589 95.104 93.2589 88.3413 100.96 80.512C108.662 72.6827 109.782 69.6107 109.44 65.7707Z"
        fill="#3eb575" />
    <path
        d="M24.0107 99.7333C24.0107 99.7333 18.3573 64.96 48.7894 64.896C59.6374 64.896 45.9947 84.16 38.5173 75.2747C31.04 66.3893 37.8347 53.0667 45.7067 49.0667"
        stroke="#231815" stroke-width="0.864" stroke-miterlimit="10" />
    <path d="M87.5845 66.0917L82.3792 72.1077L87.9578 76.9717L83.0938 82.7103L87.8938 87.585" stroke="white"
        stroke-width="0.96" stroke-miterlimit="10" />
</svg>